<?xml version="1.0" encoding="UTF-8"?>
<svg width="676px" height="284px" viewBox="0 0 676 284" version="1.1" xmlns="http://www.w3.org/2000/svg" xmlns:xlink="http://www.w3.org/1999/xlink">
    <!-- Generator: Sketch 51.2 (57519) - http://www.bohemiancoding.com/sketch -->
    <title>logo</title>
    <desc>Created with Sketch.</desc>
    <defs></defs>
    <g id="logo" stroke="none" stroke-width="1" fill="none" fill-rule="evenodd">
        <rect fill="#FFFFFF" x="0" y="0" width="676" height="284"></rect>
        <g transform="translate(42.000000, 47.000000)">
            <path d="M24.3945,50.116 C25.2218375,50.116 26.1343283,50.0308342 27.132,49.8605 C28.1296717,49.6901658 28.8718309,49.4590015 29.3585,49.167 L29.3585,43.327 L24.1025,43.765 C22.7398265,43.8623338 21.6205044,44.1543309 20.7445,44.641 C19.8684956,45.1276691 19.4305,45.8576618 19.4305,46.831 C19.4305,47.8043382 19.8076629,48.5951636 20.562,49.2035 C21.3163371,49.8118364 22.5938243,50.116 24.3945,50.116 Z M23.8105,21.427 C26.4385131,21.427 28.8353225,21.694664 31.001,22.23 C33.1666775,22.765336 35.0159923,23.5804945 36.549,24.6755 C38.0820077,25.7705055 39.2621625,27.1574916 40.0895,28.8365 C40.9168375,30.5155084 41.3305,32.4986552 41.3305,34.786 L41.3305,51.138 C41.3305,52.4033397 40.9776702,53.437496 40.272,54.2405 C39.5663298,55.043504 38.7268382,55.7369971 37.7535,56.321 C34.5901509,58.2190095 30.1371954,59.168 24.3945,59.168 C21.8151538,59.168 19.4913437,58.9246691 17.423,58.438 C15.3546563,57.9513309 13.5783408,57.2213382 12.094,56.248 C10.6096592,55.2746618 9.46600402,54.0336742 8.663,52.525 C7.85999599,51.0163258 7.4585,49.2643433 7.4585,47.269 C7.4585,43.9109832 8.45615669,41.3316757 10.4515,39.531 C12.4468433,37.7303243 15.5371457,36.6110022 19.7225,36.173 L29.2855,35.151 L29.2855,34.64 C29.2855,33.2286596 28.6650062,32.2188364 27.424,31.6105 C26.1829938,31.0021636 24.3945117,30.698 22.0585,30.698 C20.2091574,30.698 18.4085088,30.8926647 16.6565,31.282 C14.9044912,31.6713353 13.3228404,32.1579971 11.9115,32.742 C11.2788302,32.3039978 10.7435022,31.6348378 10.3055,30.7345 C9.86749781,29.8341622 9.6485,28.8973382 9.6485,27.924 C9.6485,26.6586603 9.95266363,25.6488371 10.561,24.8945 C11.1693364,24.1401629 12.1061603,23.495336 13.3715,22.96 C14.7828404,22.424664 16.4496571,22.0353346 18.372,21.792 C20.2943429,21.5486654 22.1071582,21.427 23.8105,21.427 Z M46.9515,28.289 C47.3408353,26.4396574 48.1073276,24.9310058 49.251,23.763 C50.3946724,22.5949942 51.8181582,22.011 53.5215,22.011 C55.127508,22.011 56.3684956,22.4003294 57.2445,23.179 C58.1205044,23.9576706 59.093828,25.0526596 60.1645,26.464 L64.8365,32.596 L72.6475,22.011 C75.32418,22.011 77.4411589,22.4854953 78.9985,23.4345 C80.5558411,24.3835047 81.3345,25.660992 81.3345,27.267 C81.3345,27.8996698 81.2493342,28.4714974 81.079,28.9825 C80.9086658,29.4935026 80.6531684,30.016664 80.3125,30.552 C79.9718316,31.087336 79.533836,31.6956633 78.9985,32.377 C78.463164,33.0583367 77.8305036,33.8613287 77.1005,34.786 L72.2825,40.188 L81.8455,52.817 C81.6021655,54.6663426 80.8721728,56.126328 79.6555,57.197 C78.4388273,58.267672 76.9788419,58.803 75.2755,58.803 C73.4261574,58.7543331 71.9540055,58.2190051 70.859,57.197 C69.7639945,56.1749949 68.7055051,54.9340073 67.6835,53.474 L63.7415,47.853 L56.2955,58.584 C56.0521654,58.584 55.7845015,58.5961665 55.4925,58.6205 C55.2004985,58.6448335 54.9571676,58.657 54.7625,58.657 C52.2804876,58.657 50.3946731,58.1460051 49.105,57.124 C47.8153269,56.1019949 47.1705,54.8366742 47.1705,53.328 C47.1705,52.1599942 47.4503305,51.1258378 48.01,50.2255 C48.5696695,49.3251622 49.5308265,48.0963411 50.8935,46.539 L56.7335,39.75 L46.9515,28.289 Z M86.8095,12.667 C86.8095,10.8176574 87.4299938,9.26033966 88.671,7.995 C89.9120062,6.72966034 91.5544898,6.097 93.5985,6.097 C95.6425102,6.097 97.2849938,6.72966034 98.526,7.995 C99.7670062,9.26033966 100.3875,10.8176574 100.3875,12.667 C100.3875,14.5163426 99.7670062,16.0736603 98.526,17.339 C97.2849938,18.6043397 95.6425102,19.237 93.5985,19.237 C91.5544898,19.237 89.9120062,18.6043397 88.671,17.339 C87.4299938,16.0736603 86.8095,14.5163426 86.8095,12.667 Z M99.8035,57.927 C99.268164,58.0243338 98.4773386,58.1581658 97.431,58.3285 C96.3846614,58.4988342 95.326172,58.584 94.2555,58.584 C93.184828,58.584 92.2236709,58.5110007 91.372,58.365 C90.5203291,58.2189993 89.8025029,57.9270022 89.2185,57.489 C88.6344971,57.0509978 88.1843349,56.4548371 87.868,55.7005 C87.5516651,54.9461629 87.3935,53.9606728 87.3935,52.744 L87.3935,23.033 C87.928836,22.9356662 88.7196614,22.8018342 89.766,22.6315 C90.8123386,22.4611658 91.870828,22.376 92.9415,22.376 C94.012172,22.376 94.9733291,22.4489993 95.825,22.595 C96.6766709,22.7410007 97.3944971,23.0329978 97.9785,23.471 C98.5625029,23.9090022 99.0126651,24.5051629 99.329,25.2595 C99.6453349,26.0138371 99.8035,26.9993273 99.8035,28.216 L99.8035,57.927 Z M144.4065,40.261 C144.4065,43.2783484 143.944171,45.9671549 143.0195,48.3275 C142.094829,50.6878451 140.793008,52.670992 139.114,54.277 C137.434992,55.883008 135.427512,57.0996625 133.0915,57.927 C130.755488,58.7543375 128.151848,59.168 125.2805,59.168 C122.409152,59.168 119.805512,58.7300044 117.4695,57.854 C115.133488,56.9779956 113.126008,55.7248415 111.447,54.0945 C109.767992,52.4641585 108.466171,50.4810117 107.5415,48.145 C106.616829,45.8089883 106.1545,43.1810146 106.1545,40.261 C106.1545,37.3896523 106.616829,34.7860117 107.5415,32.45 C108.466171,30.1139883 109.767992,28.1308415 111.447,26.5005 C113.126008,24.8701585 115.133488,23.6170044 117.4695,22.741 C119.805512,21.8649956 122.409152,21.427 125.2805,21.427 C128.151848,21.427 130.755488,21.8771622 133.0915,22.7775 C135.427512,23.6778378 137.434992,24.9431585 139.114,26.5735 C140.793008,28.2038415 142.094829,30.1869883 143.0195,32.523 C143.944171,34.8590117 144.4065,37.4383192 144.4065,40.261 Z M118.8565,40.261 C118.8565,43.2296815 119.428328,45.5048254 120.572,47.0865 C121.715672,48.6681746 123.30949,49.459 125.3535,49.459 C127.39751,49.459 128.966995,48.656008 130.062,47.05 C131.157005,45.443992 131.7045,43.1810146 131.7045,40.261 C131.7045,37.3409854 131.144839,35.0901746 130.0255,33.5085 C128.906161,31.9268254 127.32451,31.136 125.2805,31.136 C123.23649,31.136 121.654839,31.9268254 120.5355,33.5085 C119.416161,35.0901746 118.8565,37.3409854 118.8565,40.261 Z M180.3955,47.415 C180.3955,51.1136852 179.008514,54.0093229 176.2345,56.102 C173.460486,58.1946771 169.372527,59.241 163.9705,59.241 C161.92649,59.241 160.028509,59.0950015 158.2765,58.803 C156.524491,58.5109985 155.028006,58.0608364 153.787,57.4525 C152.545994,56.8441636 151.57267,56.0776713 150.867,55.153 C150.16133,54.2283287 149.8085,53.1333397 149.8085,51.868 C149.8085,50.6999942 150.051831,49.714504 150.5385,48.9115 C151.025169,48.108496 151.609163,47.439336 152.2905,46.904 C153.70184,47.6826706 155.319991,48.3761636 157.145,48.9845 C158.970009,49.5928364 161.074821,49.897 163.4595,49.897 C164.968174,49.897 166.123996,49.6780022 166.927,49.24 C167.730004,48.8019978 168.1315,48.2180036 168.1315,47.488 C168.1315,46.8066633 167.839503,46.2713353 167.2555,45.882 C166.671497,45.4926647 165.698173,45.1763346 164.3355,44.933 L162.1455,44.495 C157.911479,43.6676625 154.760344,42.3658422 152.692,40.5895 C150.623656,38.8131578 149.5895,36.2703499 149.5895,32.961 C149.5895,31.1603243 149.978829,29.5300073 150.7575,28.07 C151.536171,26.6099927 152.63116,25.3933382 154.0425,24.42 C155.45384,23.4466618 157.14499,22.692336 159.116,22.157 C161.08701,21.621664 163.264821,21.354 165.6495,21.354 C167.450176,21.354 169.141325,21.487832 170.723,21.7555 C172.304675,22.023168 173.679494,22.424664 174.8475,22.96 C176.015506,23.495336 176.940163,24.1888291 177.6215,25.0405 C178.302837,25.8921709 178.6435,26.9019942 178.6435,28.07 C178.6435,29.1893389 178.436669,30.150496 178.023,30.9535 C177.609331,31.756504 177.08617,32.425664 176.4535,32.961 C176.064165,32.7176654 175.480171,32.462168 174.7015,32.1945 C173.922829,31.926832 173.071171,31.6835011 172.1465,31.4645 C171.221829,31.2454989 170.285005,31.0630007 169.336,30.917 C168.386995,30.7709993 167.523171,30.698 166.7445,30.698 C165.138492,30.698 163.897504,30.8804982 163.0215,31.2455 C162.145496,31.6105018 161.7075,32.1823294 161.7075,32.961 C161.7075,33.496336 161.950831,33.9343316 162.4375,34.275 C162.924169,34.6156684 163.848827,34.9319985 165.2115,35.224 L167.4745,35.735 C172.146523,36.805672 175.46799,38.277824 177.439,40.1515 C179.41001,42.025176 180.3955,44.4463185 180.3955,47.415 Z" id="axios-copy" fill="#85BF43"></path>
            <path d="M59.5975,136.26 C61.3541755,136.26 63.2916561,136.079168 65.41,135.7175 C67.5283439,135.355832 69.1041615,134.865003 70.1375,134.245 L70.1375,121.845 L58.9775,122.775 C56.0841522,122.981668 53.7075093,123.601662 51.8475,124.635 C49.9874907,125.668339 49.0575,127.218323 49.0575,129.285 C49.0575,131.351677 49.8583253,133.030827 51.46,134.3225 C53.0616747,135.614173 55.7741476,136.26 59.5975,136.26 Z M58.3575,75.345 C63.9375279,75.345 69.0266437,75.9133276 73.625,77.05 C78.2233563,78.1866724 82.1499837,79.9174884 85.405,82.2425 C88.6600163,84.5675116 91.1658246,87.5124822 92.9225,91.0775 C94.6791755,94.6425178 95.5575,98.8533091 95.5575,103.71 L95.5575,138.43 C95.5575,141.11668 94.8083408,143.312491 93.31,145.0175 C91.8116592,146.722509 90.029177,148.194994 87.9625,149.435 C81.2457998,153.46502 71.7908943,155.48 59.5975,155.48 C54.120806,155.48 49.1866886,154.963339 44.795,153.93 C40.4033114,152.896661 36.6316824,151.346677 33.48,149.28 C30.3283176,147.213323 27.9000085,144.578349 26.195,141.375 C24.4899915,138.171651 23.6375,134.451688 23.6375,130.215 C23.6375,123.084964 25.7558122,117.608352 29.9925,113.785 C34.2291879,109.961648 40.7907889,107.585005 49.6775,106.655 L69.9825,104.485 L69.9825,103.4 C69.9825,100.403318 68.6650132,98.2591731 66.03,96.9675 C63.3949868,95.6758269 59.5975248,95.03 54.6375,95.03 C50.7108137,95.03 46.8875186,95.4433292 43.1675,96.27 C39.4474814,97.0966708 36.0891817,98.1299938 33.0925,99.37 C31.74916,98.4399954 30.6125047,97.0191762 29.6825,95.1075 C28.7524954,93.1958238 28.2875,91.206677 28.2875,89.14 C28.2875,86.4533199 28.9333269,84.3091747 30.225,82.7075 C31.5166731,81.1058253 33.5058199,79.7366723 36.1925,78.6 C39.1891817,77.4633276 42.7283129,76.6366692 46.81,76.12 C50.8916871,75.6033307 54.7408153,75.345 58.3575,75.345 Z M158.0225,96.115 C155.439154,96.115 152.985012,96.5283292 150.66,97.355 C148.334988,98.1816708 146.320009,99.3958253 144.615,100.9975 C142.909991,102.599175 141.540839,104.588321 140.5075,106.965 C139.474162,109.341679 138.9575,112.131651 138.9575,115.335 C138.9575,121.741699 140.791648,126.546651 144.46,129.75 C148.128352,132.953349 152.597474,134.555 157.8675,134.555 C160.967515,134.555 163.654155,134.193337 165.9275,133.47 C168.200845,132.746663 170.215825,131.971671 171.9725,131.145 C174.039177,132.591674 175.589161,134.167491 176.6225,135.8725 C177.655839,137.577509 178.1725,139.618321 178.1725,141.995 C178.1725,146.231688 176.15752,149.512488 172.1275,151.8375 C168.09748,154.162512 162.517536,155.325 155.3875,155.325 C148.877467,155.325 142.987526,154.369176 137.7175,152.4575 C132.447474,150.545824 127.926686,147.859184 124.155,144.3975 C120.383314,140.935816 117.464177,136.776691 115.3975,131.92 C113.330823,127.063309 112.2975,121.690029 112.2975,115.8 C112.2975,108.979966 113.408322,103.012526 115.63,97.8975 C117.851678,92.7824744 120.874148,88.5716832 124.6975,85.265 C128.520852,81.9583168 132.938308,79.4783416 137.95,77.825 C142.961692,76.1716584 148.257472,75.345 153.8375,75.345 C161.277537,75.345 167.01248,76.6883199 171.0425,79.375 C175.07252,82.0616801 177.0875,85.5233121 177.0875,89.76 C177.0875,91.7233432 176.622505,93.5574915 175.6925,95.2625 C174.762495,96.9675085 173.677506,98.4399938 172.4375,99.68 C170.680825,98.8533292 168.562512,98.0525039 166.0825,97.2775 C163.602488,96.5024961 160.915848,96.115 158.0225,96.115 Z M221.5725,127.115 C221.5725,129.80168 222.424991,131.713328 224.13,132.85 C225.835009,133.986672 228.237484,134.555 231.3375,134.555 C232.887508,134.555 234.489158,134.425835 236.1425,134.1675 C237.795842,133.909165 239.242494,133.573335 240.4825,133.16 C241.412505,134.296672 242.21333,135.562493 242.885,136.9575 C243.55667,138.352507 243.8925,140.031657 243.8925,141.995 C243.8925,145.921686 242.420015,149.124988 239.475,151.605 C236.529985,154.085012 231.337537,155.325 223.8975,155.325 C214.804121,155.325 207.803358,153.258354 202.895,149.125 C197.986642,144.991646 195.5325,138.275047 195.5325,128.975 L195.5325,62.635 C196.669172,62.3249985 198.296656,61.9891685 200.415,61.6275 C202.533344,61.2658315 204.780821,61.085 207.1575,61.085 C211.704189,61.085 215.243321,61.8858253 217.775,63.4875 C220.306679,65.0891747 221.5725,68.4733075 221.5725,73.64 L221.5725,83.56 L241.8775,83.56 C242.497503,84.6966724 243.091664,86.1174915 243.66,87.8225 C244.228336,89.5275085 244.5125,91.413323 244.5125,93.48 C244.5125,97.0966848 243.711675,99.7058253 242.11,101.3075 C240.508325,102.909175 238.36418,103.71 235.6775,103.71 L221.5725,103.71 L221.5725,127.115 Z M260.4775,56.745 C260.4775,52.8183137 261.794987,49.5116801 264.43,46.825 C267.065013,44.1383199 270.552478,42.795 274.8925,42.795 C279.232522,42.795 282.719987,44.1383199 285.355,46.825 C287.990013,49.5116801 289.3075,52.8183137 289.3075,56.745 C289.3075,60.6716863 287.990013,63.9783199 285.355,66.665 C282.719987,69.3516801 279.232522,70.695 274.8925,70.695 C270.552478,70.695 267.065013,69.3516801 264.43,66.665 C261.794987,63.9783199 260.4775,60.6716863 260.4775,56.745 Z M288.0675,152.845 C286.930828,153.051668 285.251678,153.335832 283.03,153.6975 C280.808322,154.059168 278.560845,154.24 276.2875,154.24 C274.014155,154.24 271.973342,154.085002 270.165,153.775 C268.356658,153.464998 266.832506,152.845005 265.5925,151.915 C264.352494,150.984995 263.39667,149.719175 262.725,148.1175 C262.05333,146.515825 261.7175,144.423346 261.7175,141.84 L261.7175,78.755 C262.854172,78.5483323 264.533322,78.2641685 266.755,77.9025 C268.976678,77.5408315 271.224155,77.36 273.4975,77.36 C275.770845,77.36 277.811658,77.5149985 279.62,77.825 C281.428342,78.1350015 282.952494,78.7549954 284.1925,79.685 C285.432506,80.6150047 286.38833,81.8808253 287.06,83.4825 C287.73167,85.0841747 288.0675,87.1766537 288.0675,89.76 L288.0675,152.845 Z M451.1275,105.26 C451.1275,102.056651 450.223342,99.7058408 448.415,98.2075 C446.606658,96.7091592 444.152515,95.96 441.0525,95.96 C438.985823,95.96 436.94501,96.2183308 434.93,96.735 C432.91499,97.2516692 431.184174,98.0266615 429.7375,99.06 L429.7375,152.845 C428.704161,153.155002 427.076678,153.464998 424.855,153.775 C422.633322,154.085002 420.334179,154.24 417.9575,154.24 C415.684155,154.24 413.643342,154.085002 411.835,153.775 C410.026658,153.464998 408.502506,152.845005 407.2625,151.915 C406.022494,150.984995 405.06667,149.719175 404.395,148.1175 C403.72333,146.515825 403.3875,144.423346 403.3875,141.84 L403.3875,95.34 C403.3875,92.5499861 403.981661,90.2766754 405.17,88.52 C406.358339,86.7633245 407.985823,85.1616739 410.0525,83.715 C413.565851,81.2349876 417.983307,79.2200078 423.305,77.67 C428.626693,76.1199922 434.542467,75.345 441.0525,75.345 C452.729225,75.345 461.719135,77.9024744 468.0225,83.0175 C474.325865,88.1325256 477.4775,95.2366212 477.4775,104.33 L477.4775,152.845 C476.444162,153.155002 474.816678,153.464998 472.595,153.775 C470.373322,154.085002 468.074179,154.24 465.6975,154.24 C463.424155,154.24 461.383342,154.085002 459.575,153.775 C457.766658,153.464998 456.242506,152.845005 455.0025,151.915 C453.762494,150.984995 452.80667,149.719175 452.135,148.1175 C451.46333,146.515825 451.1275,144.423346 451.1275,141.84 L451.1275,105.26 Z M561.1775,130.525 C561.1775,138.378373 558.232529,144.526644 552.3425,148.97 C546.452471,153.413356 537.772557,155.635 526.3025,155.635 C521.962478,155.635 517.932519,155.325003 514.2125,154.705 C510.492481,154.084997 507.315013,153.129173 504.68,151.8375 C502.044987,150.545827 499.978341,148.918343 498.48,146.955 C496.981659,144.991657 496.2325,142.66668 496.2325,139.98 C496.2325,137.499988 496.749162,135.407509 497.7825,133.7025 C498.815838,131.997491 500.055826,130.576672 501.5025,129.44 C504.499182,131.093342 507.934981,132.565827 511.81,133.8575 C515.685019,135.149173 520.154141,135.795 525.2175,135.795 C528.420849,135.795 530.874991,135.330005 532.58,134.4 C534.285009,133.469995 535.1375,132.230008 535.1375,130.68 C535.1375,129.233326 534.517506,128.096671 533.2775,127.27 C532.037494,126.443329 529.970848,125.771669 527.0775,125.255 L522.4275,124.325 C513.437455,122.568325 506.746689,119.804186 502.355,116.0325 C497.963311,112.260814 495.7675,106.861702 495.7675,99.835 C495.7675,96.0116475 496.594158,92.5500155 498.2475,89.45 C499.900842,86.3499845 502.225818,83.766677 505.2225,81.7 C508.219182,79.633323 511.809979,78.0316723 515.995,76.895 C520.180021,75.7583276 524.804141,75.19 529.8675,75.19 C533.690852,75.19 537.28165,75.4741638 540.64,76.0425 C543.99835,76.6108362 546.917488,77.4633276 549.3975,78.6 C551.877512,79.7366723 553.840826,81.2091576 555.2875,83.0175 C556.734174,84.8258424 557.4575,86.9699876 557.4575,89.45 C557.4575,91.8266785 557.018338,93.8674915 556.14,95.5725 C555.261662,97.2775085 554.15084,98.6983277 552.8075,99.835 C551.980829,99.3183308 550.740842,98.7758362 549.0875,98.2075 C547.434158,97.6391638 545.625843,97.1225023 543.6625,96.6575 C541.699157,96.1924977 539.71001,95.8050016 537.695,95.495 C535.67999,95.1849984 533.845842,95.03 532.1925,95.03 C528.782483,95.03 526.147509,95.4174961 524.2875,96.1925 C522.427491,96.9675039 521.4975,98.1816584 521.4975,99.835 C521.4975,100.971672 522.014162,101.901663 523.0475,102.625 C524.080839,103.348337 526.044152,104.019997 528.9375,104.64 L533.7425,105.725 C543.66255,107.998345 550.714979,111.124147 554.9,115.1025 C559.085021,119.080853 561.1775,124.221635 561.1775,130.525 Z" id="actions-copy" fill="#2C3E50"></path>
            <g id="button-flat" transform="translate(299.000000, 67.000000)">
                <path d="M94,49 C94,76.0619401 72.9573711,98 47,98 C21.0426289,98 0,76.0619401 0,49 C0,21.9380599 21.0426289,0 47,0 C72.9573711,0 94,21.9380599 94,49 Z" id="circle-outer" fill-opacity="0.15" fill="#0A8A44"></path>
                <path d="M85.016701,48.7272165 C85.016701,70.7673535 67.87889,88.634433 46.7383505,88.634433 C25.597811,88.634433 8.46,70.7673535 8.46,48.7272165 C8.46,26.6870795 25.597811,8.82 46.7383505,8.82 C67.87889,8.82 85.016701,26.6870795 85.016701,48.7272165 Z" id="circle-inner" fill="#85BF43"></path>
                <path d="M34.3292203,24.1925641 C32.2939774,25.2112883 31.02,27.2242276 31.02,29.4193865 C31.02,40.4420675 31.02,57.1316683 31.02,68.1351684 C31.02,70.3260647 32.289519,72.3368729 34.3180744,73.3577283 C36.3455152,74.3764525 38.7987298,74.2389886 40.6868467,72.9975517 C49.4174371,67.2581704 62.0791895,58.9357479 70.0150766,53.7206472 C71.6858483,52.6220022 72.6856363,50.8083321 72.6900947,48.8710512 C72.6934384,46.931639 71.7014526,45.1147721 70.0351392,44.010799 C62.1070543,38.7552052 49.4441873,30.3624523 40.7069093,24.570856 C38.819907,23.3208942 36.3622341,23.1749055 34.3292203,24.1925641 Z" id="triangle-inner" fill="#FFFFFE"></path>
            </g>
        </g>
    </g>
</svg>